<svg xmlns="http://www.w3.org/2000/svg" width="1308" zoomAndPan="magnify" viewBox="62.57 227.62 1307.70 385.48" height="386" version="1.0"><defs><g /><clipPath id="8affb12d6d"><path d="M 67.589844 235 L 201.839844 235 L 201.839844 547 L 67.589844 547 Z M 67.589844 235 " clip-rule="nonzero" /></clipPath><clipPath id="f1ea515a45"><rect x="0" width="1219" y="0" height="181" /></clipPath><clipPath id="b593fec7af"><path d="M 1230.851562 296.1875 L 1365.101562 296.1875 L 1365.101562 608.9375 L 1230.851562 608.9375 Z M 1230.851562 296.1875 " clip-rule="nonzero" /></clipPath><clipPath id="c0b754460d"><path d="M 1.003906 0.1875 L 135.101562 0.1875 L 135.101562 312.878906 L 1.003906 312.878906 Z M 1.003906 0.1875 " clip-rule="nonzero" /></clipPath><clipPath id="18f931191a"><rect x="0" width="136" y="0" height="313" /></clipPath></defs><g clip-path="url(#8affb12d6d)"><path fill="#f5f0e6" d="M 156.367188 309.507812 C 157.527344 310.644531 158.417969 311.828125 159.035156 313.050781 C 160.269531 315.304688 161.261719 317.441406 162.003906 319.460938 L 162.039062 319.574219 L 156.363281 309.507812 Z M 132.882812 520.914062 C 132.378906 521.289062 132.121094 521.535156 132.113281 521.652344 C 132.136719 521.558594 132.394531 521.3125 132.886719 520.914062 Z M 159.035156 235.339844 L 150.59375 235.59375 L 143.46875 235.816406 L 146.144531 246.773438 C 146.355469 248.277344 146.316406 249.53125 146.027344 250.535156 C 145.710938 252.082031 145.300781 253.355469 144.796875 254.359375 L 136.753906 269.878906 L 136.75 269.878906 C 135.488281 270.9375 134.125 272.074219 132.660156 273.285156 C 131.675781 274.242188 129.308594 278.378906 125.558594 285.695312 C 124.570312 287.175781 123.503906 288.410156 122.363281 289.402344 C 121.8125 289.972656 120.171875 290.90625 117.4375 292.203125 L 104.335938 297.890625 C 102.183594 299.207031 100.363281 300.792969 98.867188 302.648438 C 95.46875 307.46875 93.34375 313.097656 92.488281 319.542969 C 92.0625 321.347656 92.597656 328.90625 94.097656 342.226562 C 94.097656 344.515625 93.695312 346.511719 92.886719 348.214844 C 89.777344 353.238281 81.335938 358.757812 67.570312 364.773438 C 81.777344 359.648438 90.722656 354.765625 94.394531 350.128906 C 95.84375 348.203125 96.714844 345.800781 97.011719 342.925781 L 97.054688 339.136719 L 96.535156 323.894531 C 96.515625 321.769531 96.570312 320.351562 96.703125 319.644531 C 97.632812 314.726562 99.222656 310.484375 101.464844 306.921875 C 102.476562 305.183594 104.023438 303.640625 106.109375 302.292969 L 121.566406 295.757812 C 124.3125 294.398438 126.089844 293.222656 126.902344 292.222656 C 128.050781 291.089844 129.019531 289.882812 129.8125 288.609375 C 130.515625 287.273438 131.160156 286.046875 131.75 284.933594 L 131.753906 284.933594 C 131.636719 286.691406 131.648438 288.4375 131.785156 290.175781 C 132.125 294.824219 133.019531 298.746094 134.476562 301.941406 L 149.117188 326.359375 L 149.113281 326.359375 C 148.214844 327.441406 147.3125 328.375 146.40625 329.160156 C 145.953125 329.734375 142.957031 331.769531 137.417969 335.261719 C 136.042969 336.359375 134.835938 337.597656 133.800781 338.976562 C 133.132812 339.820312 132.570312 340.78125 132.109375 341.863281 C 129.582031 349.515625 127.824219 354.367188 126.828125 356.421875 C 125.054688 359.785156 123.363281 362.054688 121.757812 363.230469 C 120.039062 364.65625 118.234375 365.671875 116.351562 366.28125 C 105.585938 368.332031 98.507812 369.886719 95.121094 370.953125 C 97.597656 370.410156 100.449219 369.925781 103.675781 369.5 L 117.601562 368.027344 C 120.101562 367.339844 122.675781 365.898438 125.320312 363.695312 C 127.472656 361.96875 129.214844 359.820312 130.542969 357.253906 C 131.6875 355.347656 133.605469 350.648438 136.300781 343.160156 C 136.699219 342.28125 137.042969 341.6875 137.332031 341.382812 C 138.363281 340.128906 139.328125 339.15625 140.234375 338.472656 C 145.507812 335.207031 148.597656 333.148438 149.496094 332.289062 C 150.023438 331.820312 150.53125 331.34375 151.023438 330.863281 C 151.226562 331.9375 151.292969 333.027344 151.234375 334.128906 C 150.992188 336.867188 150.378906 339.707031 149.394531 342.652344 C 141.164062 358.007812 136.421875 367.367188 135.171875 370.734375 C 134.402344 372.5625 133.800781 374.640625 133.371094 376.96875 L 133.367188 376.96875 C 133.359375 376.992188 133.351562 377.011719 133.34375 377.035156 L 131.617188 384.828125 L 130.929688 386.28125 C 129.996094 387.917969 128.417969 389.519531 126.195312 391.082031 C 124.375 392.476562 119.335938 394.730469 111.085938 397.847656 L 108.542969 398.566406 C 103.796875 399.480469 100.398438 400.195312 98.347656 400.703125 C 96.609375 401.109375 95.199219 401.515625 94.113281 401.914062 C 92.808594 402.332031 91.246094 403.402344 89.433594 405.125 C 87.597656 406.683594 85.679688 410.390625 83.6875 416.246094 C 81.789062 421.054688 81.25 424.359375 82.070312 426.164062 C 81.394531 424.0625 82.078125 421.117188 84.121094 417.320312 C 85.882812 413.65625 87.320312 411.019531 88.445312 409.417969 C 89.375 408.011719 90.476562 406.902344 91.753906 406.09375 C 92.738281 405.367188 94.066406 404.769531 95.738281 404.304688 C 95.789062 404.15625 100.570312 403.3125 110.082031 401.773438 C 111.214844 401.59375 113.605469 400.847656 117.25 399.539062 C 124.160156 397.097656 129.03125 394.425781 131.859375 391.53125 C 132.136719 391.253906 132.402344 390.972656 132.660156 390.683594 L 132.664062 390.683594 C 133.042969 395.09375 133.660156 399.800781 134.523438 404.808594 L 134.519531 404.808594 L 134.265625 406.917969 C 134.105469 408.371094 134.011719 410.054688 133.992188 411.964844 C 133.882812 414.042969 134.140625 417.636719 134.757812 422.757812 C 135.398438 427.472656 136.417969 433.933594 137.808594 442.140625 C 138.285156 445.324219 138.589844 447.585938 138.726562 448.925781 C 139.140625 452.964844 139.34375 455.433594 139.34375 456.332031 C 139.386719 458.238281 139.308594 459.980469 139.117188 461.554688 C 138.664062 466.070312 137.828125 469.785156 136.613281 472.699219 C 135.863281 474.621094 133.195312 479.191406 128.609375 486.410156 C 135.289062 477.222656 138.53125 472.515625 138.332031 472.296875 C 140.53125 467.65625 141.90625 462.875 142.457031 457.949219 C 142.910156 453.5625 142.9375 449.429688 142.539062 445.554688 C 142.390625 443.617188 142.167969 441.539062 141.875 439.328125 L 140.304688 427.71875 L 140.308594 427.71875 C 141.464844 430.238281 142.738281 432.605469 144.128906 434.824219 L 160.175781 459.21875 C 161.144531 461.230469 162.109375 463.898438 163.066406 467.214844 L 163.0625 467.214844 C 162.203125 471.464844 161.226562 475.851562 160.140625 480.378906 C 159.453125 483.25 158.59375 485.992188 157.5625 488.597656 C 157.097656 489.738281 156.691406 490.632812 156.332031 491.273438 C 152.003906 499.359375 149.1875 504.550781 147.875 506.851562 C 146.628906 509.402344 144.859375 511.734375 142.566406 513.855469 C 142.046875 514.355469 141.609375 514.730469 141.25 514.976562 L 134.21875 519.886719 C 133.6875 520.28125 133.257812 520.613281 132.925781 520.882812 C 134.335938 519.832031 137.582031 517.8125 142.664062 514.820312 C 143.65625 514.125 144.847656 513.074219 146.234375 511.675781 C 149.75 507.449219 153.980469 501.183594 158.929688 492.882812 C 160.078125 490.96875 161.167969 488.414062 162.195312 485.222656 L 165.019531 475.539062 L 165.023438 475.539062 C 165.414062 478.195312 165.558594 480.730469 165.449219 483.140625 L 164.511719 490.050781 C 163.835938 494.5 163.0625 498.625 162.183594 502.429688 C 161.304688 506.234375 160.328125 509.71875 159.246094 512.878906 C 157.089844 519.203125 154.523438 524.238281 151.554688 527.988281 C 148.011719 532.789062 143.992188 536.679688 139.5 539.671875 C 134.046875 542.738281 129.40625 544.792969 125.578125 545.835938 C 136.160156 543.707031 145.058594 538.835938 152.273438 531.222656 L 158.121094 523.917969 L 163.125 515.226562 L 165.9375 508.410156 L 165.941406 508.410156 C 165.964844 508.511719 165.992188 508.613281 166.023438 508.71875 C 166.117188 509.070312 166.226562 509.421875 166.347656 509.769531 L 167.757812 513.445312 L 169.84375 518.546875 C 170.449219 520.542969 170.78125 522.0625 170.847656 523.109375 C 170.933594 523.976562 170.953125 524.75 170.902344 525.429688 C 170.84375 526.382812 170.707031 527.4375 170.484375 528.605469 C 169.847656 531.71875 169.117188 534.269531 168.289062 536.253906 C 169.390625 533.722656 170.4375 530.882812 171.425781 527.722656 C 171.90625 526.0625 172.160156 524.46875 172.183594 522.933594 C 172.183594 521.789062 171.996094 520.441406 171.625 518.882812 C 171.265625 517.453125 170.914062 516.21875 170.5625 515.171875 C 170.167969 513.917969 169.605469 512.300781 168.878906 510.320312 L 168.117188 507.929688 C 167.753906 506.707031 167.523438 505.613281 167.429688 504.652344 L 167.425781 504.652344 L 170.585938 493.707031 L 173.046875 480.875 C 173.183594 478.222656 173.117188 475.484375 172.855469 472.667969 L 172.859375 472.667969 L 176.507812 475.21875 C 178.761719 477.402344 180.15625 479.421875 180.6875 481.269531 C 182.753906 487.058594 183.71875 493.789062 183.585938 501.457031 C 184.144531 494.828125 184.304688 489.832031 184.0625 486.472656 C 183.730469 482.226562 183.074219 478.691406 182.097656 475.863281 C 181.496094 474.40625 180.660156 473.074219 179.59375 471.867188 C 179.757812 471.792969 177.210938 469.828125 171.953125 465.96875 L 171.949219 465.96875 C 171.296875 462.652344 169.867188 457.808594 167.667969 451.433594 C 155.917969 432.027344 150.050781 421.425781 150.0625 419.636719 C 148.6875 414.914062 147.296875 405.34375 145.878906 390.925781 C 145.679688 387.1875 145.757812 383.953125 146.113281 381.222656 L 146.117188 381.222656 C 149.15625 385.316406 151.425781 387.855469 152.929688 388.832031 C 153.839844 389.605469 154.605469 390.160156 155.230469 390.496094 L 165.675781 396.6875 C 167.757812 398.238281 169.238281 399.542969 170.125 400.601562 C 171.851562 402.660156 173.453125 405.222656 174.925781 408.292969 C 175.617188 409.707031 176.714844 412.730469 178.214844 417.367188 C 178.6875 418.585938 178.96875 419.210938 179.054688 419.242188 C 178.714844 418.371094 178.480469 417.65625 178.351562 417.101562 C 177.070312 410.695312 176.308594 407.328125 176.066406 407 C 174.6875 402.9375 173.339844 399.988281 172.019531 398.152344 C 171.230469 396.917969 169.878906 395.355469 167.972656 393.464844 C 167.472656 393.054688 166.714844 392.5 165.691406 391.808594 L 157.09375 386.089844 C 156.339844 385.566406 155.316406 384.628906 154.019531 383.285156 C 153 382.300781 150.929688 379.507812 147.800781 374.910156 C 148.550781 373.070312 149.382812 371.296875 150.289062 369.589844 L 162.652344 346.28125 C 164.203125 342.601562 165.128906 338.644531 165.4375 334.410156 C 165.515625 332.816406 165.523438 331.351562 165.460938 330.011719 L 165.464844 330.011719 L 167.738281 336.945312 C 168.296875 338.304688 169.046875 339.566406 169.980469 340.726562 C 171.117188 342.042969 172.445312 343.027344 173.964844 343.675781 L 187.179688 346.757812 C 189.703125 347.664062 191.703125 348.695312 193.175781 349.839844 C 198.101562 353.75 201.035156 359.003906 201.972656 365.597656 C 201.4375 358.484375 198.882812 352.554688 194.308594 347.804688 C 192.976562 346.480469 190.9375 345.128906 188.195312 343.742188 C 186.375 342.867188 182.167969 341.398438 175.574219 339.34375 C 174.992188 338.996094 174.257812 338.289062 173.375 337.226562 C 172.875 336.457031 172.503906 335.660156 172.25 334.835938 C 168.8125 322.921875 166.945312 316.769531 166.640625 316.386719 C 165.285156 312.699219 163.644531 309.605469 161.722656 307.105469 C 160.636719 305.804688 159.480469 304.695312 158.257812 303.785156 C 155.199219 301.625 152.292969 299.496094 149.539062 297.398438 L 149.535156 297.398438 L 148.964844 296.386719 C 147.511719 292.964844 146.828125 290.535156 146.914062 289.09375 C 146.734375 285.980469 146.964844 283.328125 147.601562 281.144531 L 156.394531 264.347656 L 156.398438 264.347656 C 157.324219 265.785156 157.925781 267.074219 158.203125 268.214844 L 158.636719 269.976562 C 159.074219 276.007812 159.433594 279.738281 159.71875 281.167969 C 159.996094 282.894531 160.507812 284.382812 161.25 285.644531 C 162.515625 287.425781 163.625 288.625 164.585938 289.234375 C 169.523438 291.382812 172.558594 292.785156 173.679688 293.445312 C 175.539062 294.425781 177.144531 295.550781 178.492188 296.824219 C 180.339844 298.296875 182.105469 301.25 183.78125 305.691406 C 182.558594 300.71875 180.835938 297.011719 178.617188 294.566406 C 177.777344 293.570312 176.578125 292.496094 175.015625 291.347656 C 173.695312 290.328125 170.933594 288.625 166.726562 286.242188 C 166.289062 285.921875 165.875 285.460938 165.488281 284.855469 C 164.691406 283.132812 164.246094 281.671875 164.148438 280.472656 C 163.964844 279.257812 163.742188 275.742188 163.480469 269.9375 L 163.277344 268.070312 C 163.109375 266.8125 162.613281 265.171875 161.78125 263.152344 C 161.234375 261.792969 160.359375 260.382812 159.15625 258.925781 L 159.152344 258.925781 C 159.664062 257.609375 160.222656 255.726562 160.828125 253.28125 C 161.558594 249.207031 161.773438 246.546875 161.472656 245.296875 C 161.40625 244.550781 161.300781 243.839844 161.160156 243.160156 Z M 125.566406 545.835938 C 123.890625 546.175781 122.171875 546.441406 120.410156 546.640625 C 121.925781 546.628906 123.644531 546.359375 125.566406 545.835938 Z M 125.566406 545.835938 " fill-opacity="1" fill-rule="nonzero" /></g><g transform="matrix(1, 0, 0, 1, 136, 206)"><g clip-path="url(#f1ea515a45)"><g fill="#f5f0e6" fill-opacity="1"><g transform="translate(0.995008, 112.833831)"><g><path d="M 59.265625 -31.578125 L 69.21875 -14.09375 C 70.351562 -12.0625 71.503906 -10.539062 72.671875 -9.53125 C 73.847656 -8.519531 74.898438 -7.726562 75.828125 -7.15625 C 76.765625 -6.59375 77.515625 -6.023438 78.078125 -5.453125 C 78.648438 -4.890625 78.9375 -4.046875 78.9375 -2.921875 C 78.9375 -0.972656 77.113281 0 73.46875 0 L 57.921875 0 C 55.984375 0 54.503906 -0.21875 53.484375 -0.65625 C 52.472656 -1.101562 51.96875 -1.9375 51.96875 -3.15625 C 51.96875 -4.050781 52.269531 -4.820312 52.875 -5.46875 C 53.488281 -6.113281 54.097656 -6.800781 54.703125 -7.53125 C 55.316406 -8.257812 55.660156 -9.171875 55.734375 -10.265625 C 55.816406 -11.359375 55.332031 -12.796875 54.28125 -14.578125 L 46.515625 -28.53125 C 44.242188 -28.289062 41.8125 -28.171875 39.21875 -28.171875 L 28.53125 -28.171875 C 26.914062 -28.171875 26.109375 -27.363281 26.109375 -25.75 L 26.109375 -18.9375 C 26.109375 -15.375 26.472656 -12.765625 27.203125 -11.109375 C 27.929688 -9.453125 28.800781 -8.28125 29.8125 -7.59375 C 30.820312 -6.90625 31.691406 -6.273438 32.421875 -5.703125 C 33.148438 -5.140625 33.515625 -4.210938 33.515625 -2.921875 C 33.515625 -1.859375 33.03125 -1.101562 32.0625 -0.65625 C 31.09375 -0.21875 29.429688 0 27.078125 0 L 10.8125 0 C 6.519531 0 4.375 -0.972656 4.375 -2.921875 C 4.375 -4.210938 4.753906 -5.140625 5.515625 -5.703125 C 6.285156 -6.273438 7.175781 -6.90625 8.1875 -7.59375 C 9.207031 -8.28125 10.097656 -9.453125 10.859375 -11.109375 C 11.628906 -12.765625 12.015625 -15.375 12.015625 -18.9375 L 12.015625 -66.421875 C 12.015625 -67.722656 11.992188 -68.753906 11.953125 -69.515625 C 11.921875 -70.285156 11.820312 -71.035156 11.65625 -71.765625 C 11.414062 -73.628906 10.910156 -75.003906 10.140625 -75.890625 C 9.367188 -76.785156 8.535156 -77.492188 7.640625 -78.015625 C 6.753906 -78.546875 5.988281 -79.09375 5.34375 -79.65625 C 4.695312 -80.226562 4.375 -81.039062 4.375 -82.09375 C 4.375 -84.03125 6.519531 -85 10.8125 -85 L 35.09375 -85 C 43.914062 -85 51.28125 -83.703125 57.1875 -81.109375 C 63.101562 -78.523438 67.535156 -75.023438 70.484375 -70.609375 C 73.441406 -66.203125 74.921875 -61.207031 74.921875 -55.625 C 74.921875 -44.039062 69.703125 -36.023438 59.265625 -31.578125 Z M 38.734375 -34.609375 C 44.972656 -34.609375 50.070312 -36.101562 54.03125 -39.09375 C 58 -42.09375 59.984375 -46.910156 59.984375 -53.546875 C 59.984375 -58.410156 58.953125 -62.722656 56.890625 -66.484375 C 54.828125 -70.253906 51.890625 -73.226562 48.078125 -75.40625 C 44.273438 -77.59375 39.828125 -78.6875 34.734375 -78.6875 C 31.085938 -78.6875 28.738281 -78.460938 27.6875 -78.015625 C 26.632812 -77.578125 26.109375 -76.707031 26.109375 -75.40625 L 26.109375 -38.25 C 26.109375 -36.957031 26.894531 -36.023438 28.46875 -35.453125 C 30.050781 -34.890625 33.472656 -34.609375 38.734375 -34.609375 Z M 38.734375 -34.609375 " /></g></g></g><g fill="#f5f0e6" fill-opacity="1"><g transform="translate(133.735074, 112.833831)"><g><path d="M 44.6875 1.21875 C 36.832031 1.21875 29.910156 -0.519531 23.921875 -4 C 17.929688 -7.488281 13.234375 -12.265625 9.828125 -18.328125 C 6.429688 -24.398438 4.734375 -31.363281 4.734375 -39.21875 C 4.734375 -45.695312 5.847656 -51.789062 8.078125 -57.5 C 10.304688 -63.207031 13.441406 -68.207031 17.484375 -72.5 C 21.535156 -76.789062 26.289062 -80.148438 31.75 -82.578125 C 37.21875 -85.003906 43.234375 -86.21875 49.796875 -86.21875 C 57.890625 -86.21875 64.890625 -84.414062 70.796875 -80.8125 C 76.703125 -77.207031 81.296875 -72.304688 84.578125 -66.109375 C 87.859375 -59.921875 89.5 -52.941406 89.5 -45.171875 C 89.5 -38.535156 88.40625 -32.40625 86.21875 -26.78125 C 84.03125 -21.15625 80.953125 -16.234375 76.984375 -12.015625 C 73.023438 -7.804688 68.3125 -4.546875 62.84375 -2.234375 C 57.375 0.0664062 51.320312 1.21875 44.6875 1.21875 Z M 50.390625 -7.046875 C 56.054688 -7.046875 60.75 -8.441406 64.46875 -11.234375 C 68.195312 -14.023438 70.972656 -17.707031 72.796875 -22.28125 C 74.617188 -26.851562 75.53125 -31.8125 75.53125 -37.15625 C 75.53125 -42.5 74.820312 -47.640625 73.40625 -52.578125 C 71.988281 -57.515625 69.921875 -61.945312 67.203125 -65.875 C 64.492188 -69.800781 61.238281 -72.914062 57.4375 -75.21875 C 53.632812 -77.53125 49.34375 -78.6875 44.5625 -78.6875 C 38.894531 -78.6875 34.160156 -77.25 30.359375 -74.375 C 26.554688 -71.5 23.679688 -67.816406 21.734375 -63.328125 C 19.796875 -58.835938 18.828125 -54.125 18.828125 -49.1875 C 18.828125 -43.59375 19.550781 -38.265625 21 -33.203125 C 22.457031 -28.148438 24.539062 -23.660156 27.25 -19.734375 C 29.96875 -15.804688 33.289062 -12.707031 37.21875 -10.4375 C 41.144531 -8.175781 45.535156 -7.046875 50.390625 -7.046875 Z M 50.390625 -7.046875 " /></g></g></g><g fill="#f5f0e6" fill-opacity="1"><g transform="translate(279.226498, 112.833831)"><g><path d="M 44.6875 1.21875 C 36.832031 1.21875 29.910156 -0.519531 23.921875 -4 C 17.929688 -7.488281 13.234375 -12.265625 9.828125 -18.328125 C 6.429688 -24.398438 4.734375 -31.363281 4.734375 -39.21875 C 4.734375 -45.695312 5.847656 -51.789062 8.078125 -57.5 C 10.304688 -63.207031 13.441406 -68.207031 17.484375 -72.5 C 21.535156 -76.789062 26.289062 -80.148438 31.75 -82.578125 C 37.21875 -85.003906 43.234375 -86.21875 49.796875 -86.21875 C 57.890625 -86.21875 64.890625 -84.414062 70.796875 -80.8125 C 76.703125 -77.207031 81.296875 -72.304688 84.578125 -66.109375 C 87.859375 -59.921875 89.5 -52.941406 89.5 -45.171875 C 89.5 -38.535156 88.40625 -32.40625 86.21875 -26.78125 C 84.03125 -21.15625 80.953125 -16.234375 76.984375 -12.015625 C 73.023438 -7.804688 68.3125 -4.546875 62.84375 -2.234375 C 57.375 0.0664062 51.320312 1.21875 44.6875 1.21875 Z M 50.390625 -7.046875 C 56.054688 -7.046875 60.75 -8.441406 64.46875 -11.234375 C 68.195312 -14.023438 70.972656 -17.707031 72.796875 -22.28125 C 74.617188 -26.851562 75.53125 -31.8125 75.53125 -37.15625 C 75.53125 -42.5 74.820312 -47.640625 73.40625 -52.578125 C 71.988281 -57.515625 69.921875 -61.945312 67.203125 -65.875 C 64.492188 -69.800781 61.238281 -72.914062 57.4375 -75.21875 C 53.632812 -77.53125 49.34375 -78.6875 44.5625 -78.6875 C 38.894531 -78.6875 34.160156 -77.25 30.359375 -74.375 C 26.554688 -71.5 23.679688 -67.816406 21.734375 -63.328125 C 19.796875 -58.835938 18.828125 -54.125 18.828125 -49.1875 C 18.828125 -43.59375 19.550781 -38.265625 21 -33.203125 C 22.457031 -28.148438 24.539062 -23.660156 27.25 -19.734375 C 29.96875 -15.804688 33.289062 -12.707031 37.21875 -10.4375 C 41.144531 -8.175781 45.535156 -7.046875 50.390625 -7.046875 Z M 50.390625 -7.046875 " /></g></g></g><g fill="#f5f0e6" fill-opacity="1"><g transform="translate(421.074605, 112.833831)"><g><path d="M 46.140625 -72.625 L 46.140625 -18.9375 C 46.140625 -15.375 46.503906 -12.765625 47.234375 -11.109375 C 47.960938 -9.453125 48.8125 -8.28125 49.78125 -7.59375 C 50.757812 -6.90625 51.613281 -6.273438 52.34375 -5.703125 C 53.070312 -5.140625 53.4375 -4.210938 53.4375 -2.921875 C 53.4375 -1.859375 52.96875 -1.101562 52.03125 -0.65625 C 51.101562 -0.21875 49.46875 0 47.125 0 L 30.71875 0 C 26.507812 0 24.40625 -0.972656 24.40625 -2.921875 C 24.40625 -4.210938 24.789062 -5.140625 25.5625 -5.703125 C 26.332031 -6.273438 27.203125 -6.90625 28.171875 -7.59375 C 29.140625 -8.28125 30.007812 -9.453125 30.78125 -11.109375 C 31.550781 -12.765625 31.9375 -15.375 31.9375 -18.9375 L 31.9375 -72.5 C 31.9375 -74.4375 31.488281 -75.867188 30.59375 -76.796875 C 29.707031 -77.734375 28.171875 -78.203125 25.984375 -78.203125 C 23.066406 -78.203125 20.78125 -77.773438 19.125 -76.921875 C 17.46875 -76.078125 16.050781 -74.785156 14.875 -73.046875 C 13.695312 -71.304688 12.421875 -69.097656 11.046875 -66.421875 C 9.429688 -63.265625 7.894531 -61.6875 6.4375 -61.6875 C 5.21875 -61.6875 4.445312 -62.148438 4.125 -63.078125 C 3.800781 -64.015625 3.679688 -65.128906 3.765625 -66.421875 C 3.847656 -69.578125 4.03125 -72.25 4.3125 -74.4375 C 4.59375 -76.625 4.976562 -78.609375 5.46875 -80.390625 C 5.875 -82.015625 6.703125 -83.1875 7.953125 -83.90625 C 9.210938 -84.632812 11.703125 -85 15.421875 -85 L 62.546875 -85.125 C 66.347656 -85.125 68.875 -84.738281 70.125 -83.96875 C 71.382812 -83.207031 72.21875 -82.015625 72.625 -80.390625 C 73.507812 -77.234375 74.070312 -72.617188 74.3125 -66.546875 C 74.394531 -65.253906 74.253906 -64.140625 73.890625 -63.203125 C 73.523438 -62.273438 72.738281 -61.8125 71.53125 -61.8125 C 70.15625 -61.8125 68.65625 -63.347656 67.03125 -66.421875 C 65.65625 -69.097656 64.378906 -71.304688 63.203125 -73.046875 C 62.035156 -74.785156 60.617188 -76.097656 58.953125 -76.984375 C 57.296875 -77.878906 55.007812 -78.328125 52.09375 -78.328125 C 49.988281 -78.328125 48.46875 -77.859375 47.53125 -76.921875 C 46.601562 -75.992188 46.140625 -74.5625 46.140625 -72.625 Z M 46.140625 -72.625 " /></g></g></g><g fill="#f5f0e6" fill-opacity="1"><g transform="translate(550.171425, 112.833831)"><g><path d="M 36.671875 1.21875 C 32.140625 1.21875 28.535156 0.890625 25.859375 0.234375 C 23.191406 -0.410156 21.007812 -0.734375 19.3125 -0.734375 C 17.6875 -0.734375 16.550781 -0.410156 15.90625 0.234375 C 15.257812 0.890625 14.367188 1.21875 13.234375 1.21875 C 12.179688 1.21875 11.269531 0.753906 10.5 -0.171875 C 9.726562 -1.109375 9.144531 -2.875 8.75 -5.46875 C 8.34375 -7.894531 7.914062 -10.503906 7.46875 -13.296875 C 7.019531 -16.085938 6.632812 -19.265625 6.3125 -22.828125 C 6.226562 -24.203125 6.328125 -25.332031 6.609375 -26.21875 C 6.898438 -27.113281 7.570312 -27.5625 8.625 -27.5625 C 9.59375 -27.5625 10.441406 -27.195312 11.171875 -26.46875 C 11.898438 -25.738281 12.707031 -24.566406 13.59375 -22.953125 C 14.8125 -20.523438 16.410156 -17.972656 18.390625 -15.296875 C 20.378906 -12.628906 22.972656 -10.363281 26.171875 -8.5 C 29.367188 -6.632812 33.316406 -5.703125 38.015625 -5.703125 C 43.191406 -5.628906 46.992188 -6.925781 49.421875 -9.59375 C 51.847656 -12.257812 53.101562 -15.210938 53.1875 -18.453125 C 53.351562 -21.609375 52.421875 -24.257812 50.390625 -26.40625 C 48.367188 -28.550781 45.757812 -30.472656 42.5625 -32.171875 C 39.363281 -33.878906 36.066406 -35.539062 32.671875 -37.15625 C 29.429688 -38.78125 26.332031 -40.359375 23.375 -41.890625 C 20.414062 -43.429688 17.765625 -45.148438 15.421875 -47.046875 C 13.078125 -48.953125 11.234375 -51.179688 9.890625 -53.734375 C 8.554688 -56.285156 7.890625 -59.382812 7.890625 -63.03125 C 7.890625 -67.15625 9.0625 -70.957031 11.40625 -74.4375 C 13.757812 -77.914062 17.140625 -80.707031 21.546875 -82.8125 C 25.960938 -84.925781 31.207031 -85.984375 37.28125 -85.984375 C 40.113281 -85.984375 42.679688 -85.738281 44.984375 -85.25 C 47.296875 -84.757812 49.222656 -84.515625 50.765625 -84.515625 C 52.222656 -84.515625 53.273438 -84.757812 53.921875 -85.25 C 54.566406 -85.738281 55.414062 -85.984375 56.46875 -85.984375 C 57.601562 -85.984375 58.492188 -85.578125 59.140625 -84.765625 C 59.785156 -83.953125 60.394531 -82.25 60.96875 -79.65625 C 61.363281 -77.632812 61.804688 -75.46875 62.296875 -73.15625 C 62.785156 -70.851562 63.191406 -68.285156 63.515625 -65.453125 C 63.671875 -64.078125 63.585938 -62.941406 63.265625 -62.046875 C 62.941406 -61.160156 62.210938 -60.71875 61.078125 -60.71875 C 59.546875 -60.71875 57.804688 -62.21875 55.859375 -65.21875 C 54.566406 -67.238281 52.925781 -69.34375 50.9375 -71.53125 C 48.957031 -73.71875 46.671875 -75.578125 44.078125 -77.109375 C 41.492188 -78.648438 38.5 -79.421875 35.09375 -79.421875 C 30.644531 -79.421875 27.242188 -78.304688 24.890625 -76.078125 C 22.546875 -73.847656 21.375 -71.035156 21.375 -67.640625 C 21.375 -64.804688 22.203125 -62.414062 23.859375 -60.46875 C 25.523438 -58.53125 27.875 -56.726562 30.90625 -55.0625 C 33.9375 -53.40625 37.4375 -51.566406 41.40625 -49.546875 C 44.8125 -47.847656 48.070312 -46.226562 51.1875 -44.6875 C 54.300781 -43.144531 57.070312 -41.441406 59.5 -39.578125 C 61.925781 -37.722656 63.890625 -35.5625 65.390625 -33.09375 C 66.890625 -30.625 67.679688 -27.648438 67.765625 -24.171875 C 67.921875 -18.898438 66.519531 -14.363281 63.5625 -10.5625 C 60.613281 -6.757812 56.75 -3.863281 51.96875 -1.875 C 47.195312 0.101562 42.097656 1.132812 36.671875 1.21875 Z M 36.671875 1.21875 " /></g></g></g><g fill="#f5f0e6" fill-opacity="1"><g transform="translate(673.80338, 112.833831)"><g><path d="M 46.140625 -72.625 L 46.140625 -18.9375 C 46.140625 -15.375 46.503906 -12.765625 47.234375 -11.109375 C 47.960938 -9.453125 48.8125 -8.28125 49.78125 -7.59375 C 50.757812 -6.90625 51.613281 -6.273438 52.34375 -5.703125 C 53.070312 -5.140625 53.4375 -4.210938 53.4375 -2.921875 C 53.4375 -1.859375 52.96875 -1.101562 52.03125 -0.65625 C 51.101562 -0.21875 49.46875 0 47.125 0 L 30.71875 0 C 26.507812 0 24.40625 -0.972656 24.40625 -2.921875 C 24.40625 -4.210938 24.789062 -5.140625 25.5625 -5.703125 C 26.332031 -6.273438 27.203125 -6.90625 28.171875 -7.59375 C 29.140625 -8.28125 30.007812 -9.453125 30.78125 -11.109375 C 31.550781 -12.765625 31.9375 -15.375 31.9375 -18.9375 L 31.9375 -72.5 C 31.9375 -74.4375 31.488281 -75.867188 30.59375 -76.796875 C 29.707031 -77.734375 28.171875 -78.203125 25.984375 -78.203125 C 23.066406 -78.203125 20.78125 -77.773438 19.125 -76.921875 C 17.46875 -76.078125 16.050781 -74.785156 14.875 -73.046875 C 13.695312 -71.304688 12.421875 -69.097656 11.046875 -66.421875 C 9.429688 -63.265625 7.894531 -61.6875 6.4375 -61.6875 C 5.21875 -61.6875 4.445312 -62.148438 4.125 -63.078125 C 3.800781 -64.015625 3.679688 -65.128906 3.765625 -66.421875 C 3.847656 -69.578125 4.03125 -72.25 4.3125 -74.4375 C 4.59375 -76.625 4.976562 -78.609375 5.46875 -80.390625 C 5.875 -82.015625 6.703125 -83.1875 7.953125 -83.90625 C 9.210938 -84.632812 11.703125 -85 15.421875 -85 L 62.546875 -85.125 C 66.347656 -85.125 68.875 -84.738281 70.125 -83.96875 C 71.382812 -83.207031 72.21875 -82.015625 72.625 -80.390625 C 73.507812 -77.234375 74.070312 -72.617188 74.3125 -66.546875 C 74.394531 -65.253906 74.253906 -64.140625 73.890625 -63.203125 C 73.523438 -62.273438 72.738281 -61.8125 71.53125 -61.8125 C 70.15625 -61.8125 68.65625 -63.347656 67.03125 -66.421875 C 65.65625 -69.097656 64.378906 -71.304688 63.203125 -73.046875 C 62.035156 -74.785156 60.617188 -76.097656 58.953125 -76.984375 C 57.296875 -77.878906 55.007812 -78.328125 52.09375 -78.328125 C 49.988281 -78.328125 48.46875 -77.859375 47.53125 -76.921875 C 46.601562 -75.992188 46.140625 -74.5625 46.140625 -72.625 Z M 46.140625 -72.625 " /></g></g></g><g fill="#f5f0e6" fill-opacity="1"><g transform="translate(799.256841, 112.833831)"><g><path d="M 44.6875 1.21875 C 36.832031 1.21875 29.910156 -0.519531 23.921875 -4 C 17.929688 -7.488281 13.234375 -12.265625 9.828125 -18.328125 C 6.429688 -24.398438 4.734375 -31.363281 4.734375 -39.21875 C 4.734375 -45.695312 5.847656 -51.789062 8.078125 -57.5 C 10.304688 -63.207031 13.441406 -68.207031 17.484375 -72.5 C 21.535156 -76.789062 26.289062 -80.148438 31.75 -82.578125 C 37.21875 -85.003906 43.234375 -86.21875 49.796875 -86.21875 C 57.890625 -86.21875 64.890625 -84.414062 70.796875 -80.8125 C 76.703125 -77.207031 81.296875 -72.304688 84.578125 -66.109375 C 87.859375 -59.921875 89.5 -52.941406 89.5 -45.171875 C 89.5 -38.535156 88.40625 -32.40625 86.21875 -26.78125 C 84.03125 -21.15625 80.953125 -16.234375 76.984375 -12.015625 C 73.023438 -7.804688 68.3125 -4.546875 62.84375 -2.234375 C 57.375 0.0664062 51.320312 1.21875 44.6875 1.21875 Z M 50.390625 -7.046875 C 56.054688 -7.046875 60.75 -8.441406 64.46875 -11.234375 C 68.195312 -14.023438 70.972656 -17.707031 72.796875 -22.28125 C 74.617188 -26.851562 75.53125 -31.8125 75.53125 -37.15625 C 75.53125 -42.5 74.820312 -47.640625 73.40625 -52.578125 C 71.988281 -57.515625 69.921875 -61.945312 67.203125 -65.875 C 64.492188 -69.800781 61.238281 -72.914062 57.4375 -75.21875 C 53.632812 -77.53125 49.34375 -78.6875 44.5625 -78.6875 C 38.894531 -78.6875 34.160156 -77.25 30.359375 -74.375 C 26.554688 -71.5 23.679688 -67.816406 21.734375 -63.328125 C 19.796875 -58.835938 18.828125 -54.125 18.828125 -49.1875 C 18.828125 -43.59375 19.550781 -38.265625 21 -33.203125 C 22.457031 -28.148438 24.539062 -23.660156 27.25 -19.734375 C 29.96875 -15.804688 33.289062 -12.707031 37.21875 -10.4375 C 41.144531 -8.175781 45.535156 -7.046875 50.390625 -7.046875 Z M 50.390625 -7.046875 " /></g></g></g><g fill="#f5f0e6" fill-opacity="1"><g transform="translate(944.748256, 112.833831)"><g><path d="M 46.265625 1.21875 C 38.085938 1.21875 30.863281 -0.476562 24.59375 -3.875 C 18.320312 -7.28125 13.441406 -12.117188 9.953125 -18.390625 C 6.472656 -24.671875 4.734375 -32.0625 4.734375 -40.5625 C 4.734375 -46.957031 5.847656 -52.90625 8.078125 -58.40625 C 10.304688 -63.914062 13.398438 -68.753906 17.359375 -72.921875 C 21.328125 -77.085938 25.984375 -80.34375 31.328125 -82.6875 C 36.671875 -85.039062 42.421875 -86.21875 48.578125 -86.21875 C 52.546875 -86.21875 55.78125 -85.832031 58.28125 -85.0625 C 60.789062 -84.289062 62.816406 -83.90625 64.359375 -83.90625 C 65.816406 -83.90625 66.890625 -84.25 67.578125 -84.9375 C 68.265625 -85.632812 69.21875 -85.984375 70.4375 -85.984375 C 71.570312 -85.984375 72.441406 -85.578125 73.046875 -84.765625 C 73.648438 -83.953125 74.359375 -82.25 75.171875 -79.65625 C 75.816406 -77.394531 76.441406 -74.96875 77.046875 -72.375 C 77.660156 -69.78125 78.25 -66.867188 78.8125 -63.640625 C 78.976562 -62.097656 78.894531 -60.941406 78.5625 -60.171875 C 78.238281 -59.398438 77.515625 -58.9375 76.390625 -58.78125 C 75.410156 -58.695312 74.554688 -59.039062 73.828125 -59.8125 C 73.097656 -60.582031 72.128906 -61.859375 70.921875 -63.640625 C 67.597656 -68.734375 64.015625 -72.59375 60.171875 -75.21875 C 56.328125 -77.851562 51.648438 -79.171875 46.140625 -79.171875 C 40.796875 -79.171875 36.117188 -77.816406 32.109375 -75.109375 C 28.109375 -72.398438 24.992188 -68.632812 22.765625 -63.8125 C 20.546875 -59 19.4375 -53.4375 19.4375 -47.125 C 19.4375 -39.832031 20.726562 -33.226562 23.3125 -27.3125 C 25.90625 -21.40625 29.585938 -16.710938 34.359375 -13.234375 C 39.140625 -9.753906 44.726562 -8.015625 51.125 -8.015625 C 56.0625 -8.015625 60.535156 -8.941406 64.546875 -10.796875 C 68.554688 -12.660156 72.34375 -15.539062 75.90625 -19.4375 C 76.875 -20.488281 77.738281 -20.867188 78.5 -20.578125 C 79.269531 -20.296875 79.796875 -19.671875 80.078125 -18.703125 C 80.367188 -17.734375 80.148438 -16.640625 79.421875 -15.421875 C 77.554688 -12.179688 74.882812 -9.304688 71.40625 -6.796875 C 67.925781 -4.285156 64.019531 -2.320312 59.6875 -0.90625 C 55.351562 0.507812 50.878906 1.21875 46.265625 1.21875 Z M 46.265625 1.21875 " /></g></g></g><g fill="#f5f0e6" fill-opacity="1"><g transform="translate(1079.795725, 112.833831)"><g><path d="M 66.1875 -71.765625 L 55.984375 -62.296875 L 77.359375 -14.9375 C 78.492188 -12.59375 79.625 -10.851562 80.75 -9.71875 C 81.882812 -8.582031 82.957031 -7.726562 83.96875 -7.15625 C 84.976562 -6.59375 85.785156 -6.023438 86.390625 -5.453125 C 87.003906 -4.890625 87.3125 -4.046875 87.3125 -2.921875 C 87.3125 -0.972656 85.488281 0 81.84375 0 L 65.9375 0 C 63.675781 0 62.035156 -0.21875 61.015625 -0.65625 C 60.003906 -1.101562 59.5 -1.9375 59.5 -3.15625 C 59.5 -4.050781 59.78125 -4.800781 60.34375 -5.40625 C 60.914062 -6.007812 61.523438 -6.65625 62.171875 -7.34375 C 62.816406 -8.03125 63.222656 -8.921875 63.390625 -10.015625 C 63.554688 -11.109375 63.191406 -12.628906 62.296875 -14.578125 L 45.65625 -52.578125 L 26.109375 -34.484375 L 26.109375 -18.9375 C 26.109375 -15.375 26.472656 -12.765625 27.203125 -11.109375 C 27.929688 -9.453125 28.800781 -8.28125 29.8125 -7.59375 C 30.820312 -6.90625 31.691406 -6.273438 32.421875 -5.703125 C 33.148438 -5.140625 33.515625 -4.210938 33.515625 -2.921875 C 33.515625 -1.859375 33.03125 -1.101562 32.0625 -0.65625 C 31.09375 -0.21875 29.429688 0 27.078125 0 L 10.8125 0 C 6.519531 0 4.375 -0.972656 4.375 -2.921875 C 4.375 -4.210938 4.753906 -5.140625 5.515625 -5.703125 C 6.285156 -6.273438 7.175781 -6.90625 8.1875 -7.59375 C 9.207031 -8.28125 10.097656 -9.453125 10.859375 -11.109375 C 11.628906 -12.765625 12.015625 -15.375 12.015625 -18.9375 L 12.015625 -66.0625 C 12.015625 -69.625 11.648438 -72.234375 10.921875 -73.890625 C 10.203125 -75.554688 9.332031 -76.734375 8.3125 -77.421875 C 7.300781 -78.109375 6.429688 -78.734375 5.703125 -79.296875 C 4.972656 -79.867188 4.609375 -80.800781 4.609375 -82.09375 C 4.609375 -83.226562 5.09375 -83.992188 6.0625 -84.390625 C 7.039062 -84.796875 8.703125 -85 11.046875 -85 L 27.328125 -85 C 31.617188 -85 33.765625 -84.03125 33.765625 -82.09375 C 33.765625 -80.800781 33.378906 -79.867188 32.609375 -79.296875 C 31.835938 -78.734375 30.945312 -78.109375 29.9375 -77.421875 C 28.925781 -76.734375 28.035156 -75.554688 27.265625 -73.890625 C 26.492188 -72.234375 26.109375 -69.625 26.109375 -66.0625 L 26.109375 -43.71875 L 55.734375 -71.765625 C 57.441406 -73.390625 58.351562 -74.644531 58.46875 -75.53125 C 58.59375 -76.425781 58.289062 -77.15625 57.5625 -77.71875 C 56.832031 -78.28125 56.082031 -78.863281 55.3125 -79.46875 C 54.539062 -80.082031 54.15625 -80.914062 54.15625 -81.96875 C 54.15625 -83.101562 54.5625 -83.890625 55.375 -84.328125 C 56.1875 -84.773438 57.320312 -85 58.78125 -85 L 73.234375 -85 C 77.515625 -85 79.65625 -84.03125 79.65625 -82.09375 C 79.65625 -80.875 79.351562 -80.019531 78.75 -79.53125 C 78.144531 -79.050781 77.253906 -78.585938 76.078125 -78.140625 C 74.898438 -77.703125 73.484375 -77.015625 71.828125 -76.078125 C 70.171875 -75.148438 68.289062 -73.710938 66.1875 -71.765625 Z M 66.1875 -71.765625 " /></g></g></g></g></g><g clip-path="url(#b593fec7af)"><g transform="matrix(1, 0, 0, 1, 1230, 296)"><g clip-path="url(#18f931191a)"><g clip-path="url(#c0b754460d)"><path fill="#f5f0e6" d="M 46.476562 74.960938 C 45.316406 76.097656 44.429688 77.277344 43.808594 78.503906 C 42.574219 80.757812 41.585938 82.894531 40.839844 84.914062 L 40.804688 85.027344 L 46.480469 74.960938 Z M 69.960938 286.367188 C 70.464844 286.742188 70.722656 286.988281 70.730469 287.105469 C 70.707031 287.011719 70.449219 286.765625 69.957031 286.367188 Z M 43.8125 0.792969 L 52.25 1.042969 L 59.378906 1.269531 L 56.699219 12.226562 C 56.488281 13.730469 56.527344 14.984375 56.816406 15.988281 C 57.132812 17.535156 57.546875 18.808594 58.046875 19.8125 L 66.089844 35.328125 L 66.09375 35.328125 C 67.355469 36.390625 68.71875 37.527344 70.183594 38.738281 C 71.171875 39.695312 73.539062 43.832031 77.285156 51.148438 C 78.273438 52.628906 79.339844 53.863281 80.484375 54.855469 C 81.03125 55.425781 82.671875 56.355469 85.40625 57.65625 L 98.511719 63.34375 C 100.660156 64.660156 102.480469 66.246094 103.976562 68.097656 C 107.375 72.917969 109.5 78.550781 110.355469 84.996094 C 110.785156 86.796875 110.246094 94.359375 108.746094 107.679688 C 108.746094 109.96875 109.148438 111.964844 109.960938 113.664062 C 113.070312 118.691406 121.507812 124.210938 135.273438 130.226562 C 121.066406 125.101562 112.125 120.21875 108.449219 115.578125 C 107.003906 113.652344 106.128906 111.253906 105.832031 108.378906 L 105.789062 104.589844 L 106.308594 89.347656 C 106.328125 87.222656 106.273438 85.804688 106.144531 85.097656 C 105.210938 80.175781 103.621094 75.9375 101.378906 72.375 C 100.367188 70.636719 98.820312 69.09375 96.734375 67.746094 L 81.277344 61.210938 C 78.535156 59.851562 76.757812 58.671875 75.941406 57.675781 C 74.796875 56.539062 73.824219 55.335938 73.03125 54.0625 C 72.328125 52.722656 71.683594 51.5 71.09375 50.386719 L 71.089844 50.386719 C 71.207031 52.144531 71.195312 53.890625 71.0625 55.628906 C 70.722656 60.277344 69.824219 64.199219 68.367188 67.394531 L 53.726562 91.8125 L 53.730469 91.8125 C 54.628906 92.894531 55.53125 93.828125 56.441406 94.613281 C 56.894531 95.1875 59.886719 97.222656 65.425781 100.714844 C 66.800781 101.8125 68.007812 103.050781 69.042969 104.429688 C 69.710938 105.273438 70.277344 106.234375 70.734375 107.316406 C 73.261719 114.96875 75.019531 119.820312 76.015625 121.875 C 77.789062 125.238281 79.480469 127.507812 81.085938 128.679688 C 82.804688 130.105469 84.609375 131.125 86.492188 131.734375 C 97.257812 133.785156 104.335938 135.339844 107.722656 136.40625 C 105.246094 135.863281 102.394531 135.378906 99.167969 134.953125 L 85.242188 133.480469 C 82.742188 132.792969 80.167969 131.347656 77.527344 129.148438 C 75.375 127.421875 73.632812 125.273438 72.300781 122.707031 C 71.15625 120.800781 69.238281 116.101562 66.542969 108.613281 C 66.144531 107.730469 65.800781 107.140625 65.511719 106.835938 C 64.480469 105.582031 63.515625 104.609375 62.613281 103.925781 C 57.335938 100.660156 54.246094 98.601562 53.347656 97.742188 C 52.820312 97.273438 52.3125 96.796875 51.824219 96.316406 L 51.820312 96.316406 C 51.621094 97.390625 51.550781 98.480469 51.613281 99.582031 C 51.851562 102.320312 52.464844 105.160156 53.453125 108.105469 C 61.679688 123.460938 66.421875 132.820312 67.671875 136.183594 C 68.441406 138.015625 69.042969 140.09375 69.472656 142.417969 L 69.476562 142.417969 C 69.484375 142.441406 69.492188 142.464844 69.503906 142.488281 L 71.226562 150.28125 L 71.914062 151.734375 C 72.851562 153.371094 74.429688 154.972656 76.648438 156.535156 C 78.46875 157.929688 83.507812 160.183594 91.757812 163.300781 L 94.300781 164.019531 C 99.046875 164.933594 102.445312 165.644531 104.496094 166.15625 C 106.234375 166.5625 107.644531 166.964844 108.730469 167.367188 C 110.039062 167.785156 111.597656 168.855469 113.410156 170.578125 C 115.25 172.136719 117.164062 175.84375 119.15625 181.699219 C 121.054688 186.503906 121.59375 189.8125 120.773438 191.617188 C 121.449219 189.515625 120.765625 186.570312 118.722656 182.773438 C 116.964844 179.109375 115.523438 176.472656 114.402344 174.871094 C 113.472656 173.460938 112.367188 172.355469 111.089844 171.546875 C 110.105469 170.820312 108.777344 170.222656 107.105469 169.753906 C 107.054688 169.609375 102.273438 168.765625 92.761719 167.226562 C 91.628906 167.046875 89.238281 166.300781 85.59375 164.992188 C 78.683594 162.550781 73.816406 159.878906 70.988281 156.984375 C 70.707031 156.707031 70.441406 156.425781 70.183594 156.136719 L 70.179688 156.136719 C 69.800781 160.546875 69.183594 165.253906 68.320312 170.261719 L 68.324219 170.261719 L 68.578125 172.371094 C 68.742188 173.824219 68.832031 175.507812 68.851562 177.417969 C 68.960938 179.492188 68.707031 183.089844 68.085938 188.210938 C 67.445312 192.925781 66.429688 199.386719 65.035156 207.59375 C 64.558594 210.777344 64.253906 213.039062 64.117188 214.378906 C 63.703125 218.417969 63.5 220.882812 63.5 221.785156 C 63.460938 223.691406 63.535156 225.433594 63.726562 227.007812 C 64.183594 231.519531 65.019531 235.234375 66.234375 238.152344 C 66.984375 240.074219 69.648438 244.644531 74.234375 251.863281 C 67.554688 242.675781 64.316406 237.96875 64.511719 237.75 C 62.3125 233.109375 60.9375 228.328125 60.386719 223.402344 C 59.933594 219.015625 59.90625 214.882812 60.304688 211.007812 C 60.453125 209.070312 60.675781 206.992188 60.96875 204.78125 L 62.539062 193.171875 L 62.535156 193.171875 C 61.378906 195.691406 60.105469 198.058594 58.71875 200.277344 L 42.671875 224.671875 C 41.699219 226.683594 40.734375 229.351562 39.777344 232.667969 L 39.78125 232.667969 C 40.640625 236.917969 41.617188 241.304688 42.703125 245.832031 C 43.390625 248.703125 44.25 251.445312 45.28125 254.050781 C 45.746094 255.191406 46.15625 256.082031 46.511719 256.726562 C 50.839844 264.8125 53.65625 270.003906 54.96875 272.304688 C 56.214844 274.851562 57.984375 277.1875 60.28125 279.308594 C 60.796875 279.808594 61.234375 280.183594 61.59375 280.429688 L 68.625 285.339844 C 69.15625 285.734375 69.589844 286.066406 69.917969 286.332031 C 68.507812 285.285156 65.261719 283.265625 60.179688 280.273438 C 59.1875 279.578125 57.996094 278.527344 56.609375 277.128906 C 53.09375 272.902344 48.863281 266.636719 43.917969 258.335938 C 42.765625 256.417969 41.675781 253.867188 40.652344 250.675781 L 37.824219 240.988281 L 37.820312 240.988281 C 37.429688 243.648438 37.285156 246.183594 37.394531 248.59375 L 38.332031 255.503906 C 39.007812 259.953125 39.78125 264.078125 40.660156 267.882812 C 41.539062 271.6875 42.515625 275.171875 43.597656 278.332031 C 45.757812 284.65625 48.320312 289.691406 51.289062 293.441406 C 54.832031 298.238281 58.851562 302.132812 63.347656 305.125 C 68.796875 308.191406 73.4375 310.246094 77.265625 311.289062 C 66.6875 309.160156 57.789062 304.289062 50.570312 296.675781 L 44.722656 289.367188 L 39.722656 280.679688 L 36.910156 273.863281 L 36.90625 273.863281 C 36.878906 273.964844 36.851562 274.066406 36.824219 274.171875 C 36.726562 274.523438 36.617188 274.875 36.496094 275.222656 L 35.089844 278.898438 L 33 284 C 32.398438 285.992188 32.0625 287.515625 31.996094 288.5625 C 31.910156 289.425781 31.890625 290.203125 31.941406 290.882812 C 32 291.835938 32.136719 292.890625 32.359375 294.058594 C 32.996094 297.171875 33.730469 299.722656 34.554688 301.707031 C 33.453125 299.175781 32.410156 296.335938 31.417969 293.175781 C 30.9375 291.515625 30.683594 289.921875 30.660156 288.386719 C 30.660156 287.242188 30.847656 285.890625 31.21875 284.335938 C 31.578125 282.90625 31.929688 281.671875 32.28125 280.625 C 32.675781 279.371094 33.238281 277.753906 33.964844 275.773438 L 34.730469 273.378906 C 35.09375 272.160156 35.320312 271.066406 35.417969 270.105469 L 35.421875 270.105469 L 32.257812 259.160156 L 29.800781 246.328125 C 29.660156 243.675781 29.726562 240.9375 29.988281 238.121094 L 29.984375 238.121094 L 26.339844 240.671875 C 24.082031 242.855469 22.6875 244.875 22.15625 246.722656 C 20.089844 252.511719 19.125 259.242188 19.257812 266.910156 C 18.699219 260.28125 18.539062 255.285156 18.78125 251.925781 C 19.113281 247.679688 19.769531 244.144531 20.746094 241.316406 C 21.351562 239.859375 22.183594 238.527344 23.25 237.320312 C 23.085938 237.246094 25.636719 235.28125 30.890625 231.421875 L 30.894531 231.421875 C 31.546875 228.105469 32.976562 223.257812 35.175781 216.886719 C 46.925781 197.480469 52.792969 186.878906 52.785156 185.089844 C 54.15625 180.367188 55.550781 170.796875 56.964844 156.378906 C 57.164062 152.640625 57.085938 149.40625 56.730469 146.675781 L 56.726562 146.675781 C 53.6875 150.769531 51.417969 153.304688 49.914062 154.28125 C 49.003906 155.054688 48.238281 155.613281 47.617188 155.949219 L 37.167969 162.140625 C 35.089844 163.691406 33.605469 164.996094 32.71875 166.054688 C 30.992188 168.113281 29.390625 170.675781 27.917969 173.746094 C 27.226562 175.160156 26.132812 178.183594 24.628906 182.820312 C 24.15625 184.039062 23.878906 184.664062 23.789062 184.695312 C 24.128906 183.824219 24.363281 183.109375 24.492188 182.554688 C 25.773438 176.148438 26.535156 172.78125 26.777344 172.453125 C 28.160156 168.390625 29.507812 165.441406 30.824219 163.605469 C 31.613281 162.371094 32.964844 160.808594 34.871094 158.917969 C 35.371094 158.503906 36.132812 157.953125 37.152344 157.261719 L 45.75 151.542969 C 46.503906 151.019531 47.527344 150.082031 48.824219 148.738281 C 49.84375 147.753906 51.917969 144.960938 55.042969 140.363281 L 55.046875 140.363281 C 54.292969 138.523438 53.460938 136.75 52.554688 135.042969 L 40.191406 111.734375 C 38.644531 108.054688 37.714844 104.097656 37.410156 99.863281 C 37.328125 98.269531 37.320312 96.804688 37.382812 95.464844 L 37.378906 95.464844 L 35.105469 102.394531 C 34.546875 103.757812 33.796875 105.019531 32.863281 106.179688 C 31.726562 107.496094 30.398438 108.480469 28.878906 109.128906 L 15.667969 112.207031 C 13.140625 113.117188 11.140625 114.144531 9.667969 115.292969 C 4.742188 119.203125 1.808594 124.457031 0.871094 131.050781 C 1.40625 123.9375 3.960938 118.003906 8.539062 113.257812 C 9.867188 111.933594 11.90625 110.582031 14.652344 109.195312 C 16.46875 108.320312 20.675781 106.851562 27.269531 104.796875 C 27.851562 104.449219 28.585938 103.742188 29.472656 102.679688 C 29.96875 101.910156 30.34375 101.109375 30.59375 100.289062 C 34.03125 88.371094 35.898438 82.222656 36.203125 81.839844 C 37.558594 78.152344 39.199219 75.058594 41.121094 72.558594 C 42.207031 71.253906 43.363281 70.148438 44.585938 69.238281 C 47.644531 67.078125 50.550781 64.949219 53.304688 62.851562 L 53.308594 62.851562 L 53.878906 61.839844 C 55.332031 58.417969 56.015625 55.984375 55.929688 54.546875 C 56.109375 51.433594 55.878906 48.78125 55.242188 46.597656 L 46.453125 29.800781 L 46.449219 29.800781 C 45.519531 31.238281 44.917969 32.527344 44.640625 33.667969 L 44.207031 35.429688 C 43.769531 41.460938 43.410156 45.1875 43.128906 46.621094 C 42.847656 48.34375 42.335938 49.835938 41.59375 51.097656 C 40.328125 52.878906 39.21875 54.074219 38.257812 54.683594 C 33.320312 56.835938 30.289062 58.238281 29.164062 58.898438 C 27.304688 59.878906 25.703125 61.003906 24.355469 62.277344 C 22.503906 63.75 20.738281 66.703125 19.0625 71.144531 C 20.289062 66.171875 22.007812 62.464844 24.226562 60.019531 C 25.066406 59.019531 26.265625 57.949219 27.832031 56.800781 C 29.148438 55.78125 31.910156 54.078125 36.117188 51.691406 C 36.554688 51.375 36.96875 50.910156 37.359375 50.308594 C 38.152344 48.585938 38.597656 47.125 38.695312 45.925781 C 38.878906 44.707031 39.101562 41.195312 39.363281 35.390625 L 39.570312 33.519531 C 39.734375 32.265625 40.234375 30.625 41.066406 28.605469 C 41.609375 27.246094 42.484375 25.835938 43.691406 24.378906 L 43.695312 24.378906 C 43.179688 23.0625 42.621094 21.179688 42.015625 18.730469 C 41.285156 14.660156 41.070312 12 41.375 10.746094 C 41.4375 10.003906 41.542969 9.292969 41.683594 8.613281 Z M 77.28125 311.289062 C 78.957031 311.625 80.675781 311.894531 82.433594 312.09375 C 80.917969 312.082031 79.199219 311.8125 77.277344 311.289062 Z M 77.28125 311.289062 " fill-opacity="1" fill-rule="nonzero" /></g></g></g></g></svg>